<?xml version="1.0" encoding="UTF-8" standalone="no"?>
<!-- Created with Inkscape (http://www.inkscape.org/) -->

<svg
   width="140.69165mm"
   height="67.36483mm"
   viewBox="0 0 140.69165 67.36483"
   version="1.1"
   id="svg5"
   inkscape:version="1.1.2 (0a00cf5339, 2022-02-04)"
   sodipodi:docname="ABBBB.svg"
   xmlns:inkscape="http://www.inkscape.org/namespaces/inkscape"
   xmlns:sodipodi="http://sodipodi.sourceforge.net/DTD/sodipodi-0.dtd"
   xmlns="http://www.w3.org/2000/svg"
   xmlns:svg="http://www.w3.org/2000/svg">
  <sodipodi:namedview
     id="namedview7"
     pagecolor="#ffffff"
     bordercolor="#666666"
     borderopacity="1.0"
     inkscape:pageshadow="2"
     inkscape:pageopacity="0.0"
     inkscape:pagecheckerboard="0"
     inkscape:document-units="mm"
     showgrid="false"
     inkscape:zoom="0.5499273"
     inkscape:cx="1373.818"
     inkscape:cy="931.94137"
     inkscape:window-width="2828"
     inkscape:window-height="1556"
     inkscape:window-x="52"
     inkscape:window-y="27"
     inkscape:window-maximized="1"
     inkscape:current-layer="layer1"
     fit-margin-top="0"
     fit-margin-left="0"
     fit-margin-right="0"
     fit-margin-bottom="0" />
  <defs
     id="defs2" />
  <g
     inkscape:label="Layer 1"
     inkscape:groupmode="layer"
     id="layer1"
     transform="translate(-0.44378538,-0.8788051)">
    <path
       style="fill:#000000;stroke-width:1.64457"
       d="M 24.332234,68.243637 H 0.44378538 v -16.18984 c 0,-8.904415 0.483852,-24.099238 1.07531302,-33.766279 C 2.1909754,7.3073563 3.2352104,0.92464529 4.3017634,1.2801433 5.2407204,1.5930643 14.394986,14.752814 24.644572,30.52387 34.894138,46.294927 44.391762,61.233664 45.750375,63.721064 l 2.470191,4.522573 z m 44.909233,-0.0388 C 66.092621,68.173707 61.584502,62.399357 44.114232,36.020478 27.041145,10.241276 23.295205,3.5762563 25.20173,2.3700443 26.509355,1.5427753 27.94916,0.87167529 28.401409,0.87886229 28.8536,0.88596229 38.8444,15.390407 50.603057,33.111071 c 11.758658,17.720684 21.626056,32.874696 21.927556,33.675606 0.301461,0.80085 -1.178649,1.43913 -3.289146,1.41815 z m 24.161298,0.0388 c -3.512017,0 -7.220605,-4.654889 -25.437922,-31.928555 C 49.635644,8.8738643 46.984519,4.0992083 49.101542,2.3422483 50.557566,1.1338803 52.124579,0.90836729 52.933823,1.7906063 53.686892,2.6116593 64.025459,17.899329 75.908546,35.76344 95.851337,65.743847 97.197751,68.243637 93.402765,68.243637 Z m 21.886575,-0.0388 C 112.14047,68.173707 107.63235,62.399357 90.162101,36.020478 73.089015,10.241276 69.343074,3.5762563 71.24958,2.3700443 c 1.307624,-0.827269 2.747429,-1.49836901 3.199698,-1.49118201 0.452191,0.0071 10.442991,14.51154471 22.201648,32.23220871 11.758634,17.720684 21.626034,32.874696 21.927534,33.675606 0.30146,0.80085 -1.17865,1.43913 -3.28912,1.41815 z m 24.16129,0.0388 c -3.51201,0 -7.22062,-4.654889 -25.43792,-31.928555 C 95.683494,8.8738643 93.032388,4.0992083 95.149392,2.3422483 c 1.456024,-1.208368 3.023056,-1.43388101 3.832299,-0.551642 0.753069,0.821053 11.091619,16.1087227 22.974729,33.9728337 19.94279,29.980407 21.2892,32.480197 17.49421,32.480197 z"
       id="path245" />
  </g>
</svg>
